M48
; DRILL file {KiCad (5.1.5)-3} date 6/5/2020 4:26:24 PM
; FORMAT={-:-/ absolute / inch / decimal}
; #@! TF.CreationDate,2020-06-05T16:26:24+02:00
; #@! TF.GenerationSoftware,Kicad,Pcbnew,(5.1.5)-3
; #@! TF.FileFunction,Plated,1,2,PTH
FMAT,2
INCH
T1C0.0394
%
G90
G05
T1
X3.6Y-3.7
X3.7Y-3.7
X3.8Y-3.7
X3.9Y-3.7
X4.0Y-3.7
X4.1Y-3.7
X4.2Y-3.7
X4.3Y-3.7
X4.4Y-3.7
X4.5Y-3.7
X4.6Y-3.7
X4.7Y-3.7
X3.6Y-3.1
X3.7Y-3.1
X3.8Y-3.1
X3.9Y-3.1
X4.0Y-3.1
X4.1Y-3.1
X4.2Y-3.1
X4.3Y-3.1
X4.4Y-3.1
X4.5Y-3.1
X4.6Y-3.1
X4.7Y-3.1
T0
M30
