G04 #@! TF.GenerationSoftware,KiCad,Pcbnew,(5.1.5)-3*
G04 #@! TF.CreationDate,2020-06-05T16:26:23+02:00*
G04 #@! TF.ProjectId,FFC_24Pin_P0.5mm_Breakout,4646435f-3234-4506-996e-5f50302e356d,rev?*
G04 #@! TF.SameCoordinates,Original*
G04 #@! TF.FileFunction,Soldermask,Top*
G04 #@! TF.FilePolarity,Negative*
%FSLAX46Y46*%
G04 Gerber Fmt 4.6, Leading zero omitted, Abs format (unit mm)*
G04 Created by KiCad (PCBNEW (5.1.5)-3) date 2020-06-05 16:26:23*
%MOMM*%
%LPD*%
G04 APERTURE LIST*
%ADD10C,0.100000*%
G04 APERTURE END LIST*
D10*
G36*
X127681000Y-94981000D02*
G01*
X124479000Y-94981000D01*
X124479000Y-92579000D01*
X127681000Y-92579000D01*
X127681000Y-94981000D01*
G37*
G36*
X119493512Y-93083927D02*
G01*
X119642812Y-93113624D01*
X119806784Y-93181544D01*
X119954354Y-93280147D01*
X120079853Y-93405646D01*
X120178456Y-93553216D01*
X120246376Y-93717188D01*
X120281000Y-93891259D01*
X120281000Y-94068741D01*
X120246376Y-94242812D01*
X120178456Y-94406784D01*
X120079853Y-94554354D01*
X119954354Y-94679853D01*
X119806784Y-94778456D01*
X119642812Y-94846376D01*
X119493512Y-94876073D01*
X119468742Y-94881000D01*
X119291258Y-94881000D01*
X119266488Y-94876073D01*
X119117188Y-94846376D01*
X118953216Y-94778456D01*
X118805646Y-94679853D01*
X118680147Y-94554354D01*
X118581544Y-94406784D01*
X118513624Y-94242812D01*
X118479000Y-94068741D01*
X118479000Y-93891259D01*
X118513624Y-93717188D01*
X118581544Y-93553216D01*
X118680147Y-93405646D01*
X118805646Y-93280147D01*
X118953216Y-93181544D01*
X119117188Y-93113624D01*
X119266488Y-93083927D01*
X119291258Y-93079000D01*
X119468742Y-93079000D01*
X119493512Y-93083927D01*
G37*
G36*
X116953512Y-93083927D02*
G01*
X117102812Y-93113624D01*
X117266784Y-93181544D01*
X117414354Y-93280147D01*
X117539853Y-93405646D01*
X117638456Y-93553216D01*
X117706376Y-93717188D01*
X117741000Y-93891259D01*
X117741000Y-94068741D01*
X117706376Y-94242812D01*
X117638456Y-94406784D01*
X117539853Y-94554354D01*
X117414354Y-94679853D01*
X117266784Y-94778456D01*
X117102812Y-94846376D01*
X116953512Y-94876073D01*
X116928742Y-94881000D01*
X116751258Y-94881000D01*
X116726488Y-94876073D01*
X116577188Y-94846376D01*
X116413216Y-94778456D01*
X116265646Y-94679853D01*
X116140147Y-94554354D01*
X116041544Y-94406784D01*
X115973624Y-94242812D01*
X115939000Y-94068741D01*
X115939000Y-93891259D01*
X115973624Y-93717188D01*
X116041544Y-93553216D01*
X116140147Y-93405646D01*
X116265646Y-93280147D01*
X116413216Y-93181544D01*
X116577188Y-93113624D01*
X116726488Y-93083927D01*
X116751258Y-93079000D01*
X116928742Y-93079000D01*
X116953512Y-93083927D01*
G37*
G36*
X114413512Y-93083927D02*
G01*
X114562812Y-93113624D01*
X114726784Y-93181544D01*
X114874354Y-93280147D01*
X114999853Y-93405646D01*
X115098456Y-93553216D01*
X115166376Y-93717188D01*
X115201000Y-93891259D01*
X115201000Y-94068741D01*
X115166376Y-94242812D01*
X115098456Y-94406784D01*
X114999853Y-94554354D01*
X114874354Y-94679853D01*
X114726784Y-94778456D01*
X114562812Y-94846376D01*
X114413512Y-94876073D01*
X114388742Y-94881000D01*
X114211258Y-94881000D01*
X114186488Y-94876073D01*
X114037188Y-94846376D01*
X113873216Y-94778456D01*
X113725646Y-94679853D01*
X113600147Y-94554354D01*
X113501544Y-94406784D01*
X113433624Y-94242812D01*
X113399000Y-94068741D01*
X113399000Y-93891259D01*
X113433624Y-93717188D01*
X113501544Y-93553216D01*
X113600147Y-93405646D01*
X113725646Y-93280147D01*
X113873216Y-93181544D01*
X114037188Y-93113624D01*
X114186488Y-93083927D01*
X114211258Y-93079000D01*
X114388742Y-93079000D01*
X114413512Y-93083927D01*
G37*
G36*
X111873512Y-93083927D02*
G01*
X112022812Y-93113624D01*
X112186784Y-93181544D01*
X112334354Y-93280147D01*
X112459853Y-93405646D01*
X112558456Y-93553216D01*
X112626376Y-93717188D01*
X112661000Y-93891259D01*
X112661000Y-94068741D01*
X112626376Y-94242812D01*
X112558456Y-94406784D01*
X112459853Y-94554354D01*
X112334354Y-94679853D01*
X112186784Y-94778456D01*
X112022812Y-94846376D01*
X111873512Y-94876073D01*
X111848742Y-94881000D01*
X111671258Y-94881000D01*
X111646488Y-94876073D01*
X111497188Y-94846376D01*
X111333216Y-94778456D01*
X111185646Y-94679853D01*
X111060147Y-94554354D01*
X110961544Y-94406784D01*
X110893624Y-94242812D01*
X110859000Y-94068741D01*
X110859000Y-93891259D01*
X110893624Y-93717188D01*
X110961544Y-93553216D01*
X111060147Y-93405646D01*
X111185646Y-93280147D01*
X111333216Y-93181544D01*
X111497188Y-93113624D01*
X111646488Y-93083927D01*
X111671258Y-93079000D01*
X111848742Y-93079000D01*
X111873512Y-93083927D01*
G37*
G36*
X109333512Y-93083927D02*
G01*
X109482812Y-93113624D01*
X109646784Y-93181544D01*
X109794354Y-93280147D01*
X109919853Y-93405646D01*
X110018456Y-93553216D01*
X110086376Y-93717188D01*
X110121000Y-93891259D01*
X110121000Y-94068741D01*
X110086376Y-94242812D01*
X110018456Y-94406784D01*
X109919853Y-94554354D01*
X109794354Y-94679853D01*
X109646784Y-94778456D01*
X109482812Y-94846376D01*
X109333512Y-94876073D01*
X109308742Y-94881000D01*
X109131258Y-94881000D01*
X109106488Y-94876073D01*
X108957188Y-94846376D01*
X108793216Y-94778456D01*
X108645646Y-94679853D01*
X108520147Y-94554354D01*
X108421544Y-94406784D01*
X108353624Y-94242812D01*
X108319000Y-94068741D01*
X108319000Y-93891259D01*
X108353624Y-93717188D01*
X108421544Y-93553216D01*
X108520147Y-93405646D01*
X108645646Y-93280147D01*
X108793216Y-93181544D01*
X108957188Y-93113624D01*
X109106488Y-93083927D01*
X109131258Y-93079000D01*
X109308742Y-93079000D01*
X109333512Y-93083927D01*
G37*
G36*
X106793512Y-93083927D02*
G01*
X106942812Y-93113624D01*
X107106784Y-93181544D01*
X107254354Y-93280147D01*
X107379853Y-93405646D01*
X107478456Y-93553216D01*
X107546376Y-93717188D01*
X107581000Y-93891259D01*
X107581000Y-94068741D01*
X107546376Y-94242812D01*
X107478456Y-94406784D01*
X107379853Y-94554354D01*
X107254354Y-94679853D01*
X107106784Y-94778456D01*
X106942812Y-94846376D01*
X106793512Y-94876073D01*
X106768742Y-94881000D01*
X106591258Y-94881000D01*
X106566488Y-94876073D01*
X106417188Y-94846376D01*
X106253216Y-94778456D01*
X106105646Y-94679853D01*
X105980147Y-94554354D01*
X105881544Y-94406784D01*
X105813624Y-94242812D01*
X105779000Y-94068741D01*
X105779000Y-93891259D01*
X105813624Y-93717188D01*
X105881544Y-93553216D01*
X105980147Y-93405646D01*
X106105646Y-93280147D01*
X106253216Y-93181544D01*
X106417188Y-93113624D01*
X106566488Y-93083927D01*
X106591258Y-93079000D01*
X106768742Y-93079000D01*
X106793512Y-93083927D01*
G37*
G36*
X104253512Y-93083927D02*
G01*
X104402812Y-93113624D01*
X104566784Y-93181544D01*
X104714354Y-93280147D01*
X104839853Y-93405646D01*
X104938456Y-93553216D01*
X105006376Y-93717188D01*
X105041000Y-93891259D01*
X105041000Y-94068741D01*
X105006376Y-94242812D01*
X104938456Y-94406784D01*
X104839853Y-94554354D01*
X104714354Y-94679853D01*
X104566784Y-94778456D01*
X104402812Y-94846376D01*
X104253512Y-94876073D01*
X104228742Y-94881000D01*
X104051258Y-94881000D01*
X104026488Y-94876073D01*
X103877188Y-94846376D01*
X103713216Y-94778456D01*
X103565646Y-94679853D01*
X103440147Y-94554354D01*
X103341544Y-94406784D01*
X103273624Y-94242812D01*
X103239000Y-94068741D01*
X103239000Y-93891259D01*
X103273624Y-93717188D01*
X103341544Y-93553216D01*
X103440147Y-93405646D01*
X103565646Y-93280147D01*
X103713216Y-93181544D01*
X103877188Y-93113624D01*
X104026488Y-93083927D01*
X104051258Y-93079000D01*
X104228742Y-93079000D01*
X104253512Y-93083927D01*
G37*
G36*
X101713512Y-93083927D02*
G01*
X101862812Y-93113624D01*
X102026784Y-93181544D01*
X102174354Y-93280147D01*
X102299853Y-93405646D01*
X102398456Y-93553216D01*
X102466376Y-93717188D01*
X102501000Y-93891259D01*
X102501000Y-94068741D01*
X102466376Y-94242812D01*
X102398456Y-94406784D01*
X102299853Y-94554354D01*
X102174354Y-94679853D01*
X102026784Y-94778456D01*
X101862812Y-94846376D01*
X101713512Y-94876073D01*
X101688742Y-94881000D01*
X101511258Y-94881000D01*
X101486488Y-94876073D01*
X101337188Y-94846376D01*
X101173216Y-94778456D01*
X101025646Y-94679853D01*
X100900147Y-94554354D01*
X100801544Y-94406784D01*
X100733624Y-94242812D01*
X100699000Y-94068741D01*
X100699000Y-93891259D01*
X100733624Y-93717188D01*
X100801544Y-93553216D01*
X100900147Y-93405646D01*
X101025646Y-93280147D01*
X101173216Y-93181544D01*
X101337188Y-93113624D01*
X101486488Y-93083927D01*
X101511258Y-93079000D01*
X101688742Y-93079000D01*
X101713512Y-93083927D01*
G37*
G36*
X99173512Y-93083927D02*
G01*
X99322812Y-93113624D01*
X99486784Y-93181544D01*
X99634354Y-93280147D01*
X99759853Y-93405646D01*
X99858456Y-93553216D01*
X99926376Y-93717188D01*
X99961000Y-93891259D01*
X99961000Y-94068741D01*
X99926376Y-94242812D01*
X99858456Y-94406784D01*
X99759853Y-94554354D01*
X99634354Y-94679853D01*
X99486784Y-94778456D01*
X99322812Y-94846376D01*
X99173512Y-94876073D01*
X99148742Y-94881000D01*
X98971258Y-94881000D01*
X98946488Y-94876073D01*
X98797188Y-94846376D01*
X98633216Y-94778456D01*
X98485646Y-94679853D01*
X98360147Y-94554354D01*
X98261544Y-94406784D01*
X98193624Y-94242812D01*
X98159000Y-94068741D01*
X98159000Y-93891259D01*
X98193624Y-93717188D01*
X98261544Y-93553216D01*
X98360147Y-93405646D01*
X98485646Y-93280147D01*
X98633216Y-93181544D01*
X98797188Y-93113624D01*
X98946488Y-93083927D01*
X98971258Y-93079000D01*
X99148742Y-93079000D01*
X99173512Y-93083927D01*
G37*
G36*
X96633512Y-93083927D02*
G01*
X96782812Y-93113624D01*
X96946784Y-93181544D01*
X97094354Y-93280147D01*
X97219853Y-93405646D01*
X97318456Y-93553216D01*
X97386376Y-93717188D01*
X97421000Y-93891259D01*
X97421000Y-94068741D01*
X97386376Y-94242812D01*
X97318456Y-94406784D01*
X97219853Y-94554354D01*
X97094354Y-94679853D01*
X96946784Y-94778456D01*
X96782812Y-94846376D01*
X96633512Y-94876073D01*
X96608742Y-94881000D01*
X96431258Y-94881000D01*
X96406488Y-94876073D01*
X96257188Y-94846376D01*
X96093216Y-94778456D01*
X95945646Y-94679853D01*
X95820147Y-94554354D01*
X95721544Y-94406784D01*
X95653624Y-94242812D01*
X95619000Y-94068741D01*
X95619000Y-93891259D01*
X95653624Y-93717188D01*
X95721544Y-93553216D01*
X95820147Y-93405646D01*
X95945646Y-93280147D01*
X96093216Y-93181544D01*
X96257188Y-93113624D01*
X96406488Y-93083927D01*
X96431258Y-93079000D01*
X96608742Y-93079000D01*
X96633512Y-93083927D01*
G37*
G36*
X94093512Y-93083927D02*
G01*
X94242812Y-93113624D01*
X94406784Y-93181544D01*
X94554354Y-93280147D01*
X94679853Y-93405646D01*
X94778456Y-93553216D01*
X94846376Y-93717188D01*
X94881000Y-93891259D01*
X94881000Y-94068741D01*
X94846376Y-94242812D01*
X94778456Y-94406784D01*
X94679853Y-94554354D01*
X94554354Y-94679853D01*
X94406784Y-94778456D01*
X94242812Y-94846376D01*
X94093512Y-94876073D01*
X94068742Y-94881000D01*
X93891258Y-94881000D01*
X93866488Y-94876073D01*
X93717188Y-94846376D01*
X93553216Y-94778456D01*
X93405646Y-94679853D01*
X93280147Y-94554354D01*
X93181544Y-94406784D01*
X93113624Y-94242812D01*
X93079000Y-94068741D01*
X93079000Y-93891259D01*
X93113624Y-93717188D01*
X93181544Y-93553216D01*
X93280147Y-93405646D01*
X93405646Y-93280147D01*
X93553216Y-93181544D01*
X93717188Y-93113624D01*
X93866488Y-93083927D01*
X93891258Y-93079000D01*
X94068742Y-93079000D01*
X94093512Y-93083927D01*
G37*
G36*
X92341000Y-94881000D02*
G01*
X90539000Y-94881000D01*
X90539000Y-93079000D01*
X92341000Y-93079000D01*
X92341000Y-94881000D01*
G37*
G36*
X124981000Y-92311000D02*
G01*
X123779000Y-92311000D01*
X123779000Y-80409000D01*
X124981000Y-80409000D01*
X124981000Y-92311000D01*
G37*
G36*
X127681000Y-80141000D02*
G01*
X124479000Y-80141000D01*
X124479000Y-77739000D01*
X127681000Y-77739000D01*
X127681000Y-80141000D01*
G37*
G36*
X94093512Y-77843927D02*
G01*
X94242812Y-77873624D01*
X94406784Y-77941544D01*
X94554354Y-78040147D01*
X94679853Y-78165646D01*
X94778456Y-78313216D01*
X94846376Y-78477188D01*
X94881000Y-78651259D01*
X94881000Y-78828741D01*
X94846376Y-79002812D01*
X94778456Y-79166784D01*
X94679853Y-79314354D01*
X94554354Y-79439853D01*
X94406784Y-79538456D01*
X94242812Y-79606376D01*
X94093512Y-79636073D01*
X94068742Y-79641000D01*
X93891258Y-79641000D01*
X93866488Y-79636073D01*
X93717188Y-79606376D01*
X93553216Y-79538456D01*
X93405646Y-79439853D01*
X93280147Y-79314354D01*
X93181544Y-79166784D01*
X93113624Y-79002812D01*
X93079000Y-78828741D01*
X93079000Y-78651259D01*
X93113624Y-78477188D01*
X93181544Y-78313216D01*
X93280147Y-78165646D01*
X93405646Y-78040147D01*
X93553216Y-77941544D01*
X93717188Y-77873624D01*
X93866488Y-77843927D01*
X93891258Y-77839000D01*
X94068742Y-77839000D01*
X94093512Y-77843927D01*
G37*
G36*
X91553512Y-77843927D02*
G01*
X91702812Y-77873624D01*
X91866784Y-77941544D01*
X92014354Y-78040147D01*
X92139853Y-78165646D01*
X92238456Y-78313216D01*
X92306376Y-78477188D01*
X92341000Y-78651259D01*
X92341000Y-78828741D01*
X92306376Y-79002812D01*
X92238456Y-79166784D01*
X92139853Y-79314354D01*
X92014354Y-79439853D01*
X91866784Y-79538456D01*
X91702812Y-79606376D01*
X91553512Y-79636073D01*
X91528742Y-79641000D01*
X91351258Y-79641000D01*
X91326488Y-79636073D01*
X91177188Y-79606376D01*
X91013216Y-79538456D01*
X90865646Y-79439853D01*
X90740147Y-79314354D01*
X90641544Y-79166784D01*
X90573624Y-79002812D01*
X90539000Y-78828741D01*
X90539000Y-78651259D01*
X90573624Y-78477188D01*
X90641544Y-78313216D01*
X90740147Y-78165646D01*
X90865646Y-78040147D01*
X91013216Y-77941544D01*
X91177188Y-77873624D01*
X91326488Y-77843927D01*
X91351258Y-77839000D01*
X91528742Y-77839000D01*
X91553512Y-77843927D01*
G37*
G36*
X96633512Y-77843927D02*
G01*
X96782812Y-77873624D01*
X96946784Y-77941544D01*
X97094354Y-78040147D01*
X97219853Y-78165646D01*
X97318456Y-78313216D01*
X97386376Y-78477188D01*
X97421000Y-78651259D01*
X97421000Y-78828741D01*
X97386376Y-79002812D01*
X97318456Y-79166784D01*
X97219853Y-79314354D01*
X97094354Y-79439853D01*
X96946784Y-79538456D01*
X96782812Y-79606376D01*
X96633512Y-79636073D01*
X96608742Y-79641000D01*
X96431258Y-79641000D01*
X96406488Y-79636073D01*
X96257188Y-79606376D01*
X96093216Y-79538456D01*
X95945646Y-79439853D01*
X95820147Y-79314354D01*
X95721544Y-79166784D01*
X95653624Y-79002812D01*
X95619000Y-78828741D01*
X95619000Y-78651259D01*
X95653624Y-78477188D01*
X95721544Y-78313216D01*
X95820147Y-78165646D01*
X95945646Y-78040147D01*
X96093216Y-77941544D01*
X96257188Y-77873624D01*
X96406488Y-77843927D01*
X96431258Y-77839000D01*
X96608742Y-77839000D01*
X96633512Y-77843927D01*
G37*
G36*
X99173512Y-77843927D02*
G01*
X99322812Y-77873624D01*
X99486784Y-77941544D01*
X99634354Y-78040147D01*
X99759853Y-78165646D01*
X99858456Y-78313216D01*
X99926376Y-78477188D01*
X99961000Y-78651259D01*
X99961000Y-78828741D01*
X99926376Y-79002812D01*
X99858456Y-79166784D01*
X99759853Y-79314354D01*
X99634354Y-79439853D01*
X99486784Y-79538456D01*
X99322812Y-79606376D01*
X99173512Y-79636073D01*
X99148742Y-79641000D01*
X98971258Y-79641000D01*
X98946488Y-79636073D01*
X98797188Y-79606376D01*
X98633216Y-79538456D01*
X98485646Y-79439853D01*
X98360147Y-79314354D01*
X98261544Y-79166784D01*
X98193624Y-79002812D01*
X98159000Y-78828741D01*
X98159000Y-78651259D01*
X98193624Y-78477188D01*
X98261544Y-78313216D01*
X98360147Y-78165646D01*
X98485646Y-78040147D01*
X98633216Y-77941544D01*
X98797188Y-77873624D01*
X98946488Y-77843927D01*
X98971258Y-77839000D01*
X99148742Y-77839000D01*
X99173512Y-77843927D01*
G37*
G36*
X101713512Y-77843927D02*
G01*
X101862812Y-77873624D01*
X102026784Y-77941544D01*
X102174354Y-78040147D01*
X102299853Y-78165646D01*
X102398456Y-78313216D01*
X102466376Y-78477188D01*
X102501000Y-78651259D01*
X102501000Y-78828741D01*
X102466376Y-79002812D01*
X102398456Y-79166784D01*
X102299853Y-79314354D01*
X102174354Y-79439853D01*
X102026784Y-79538456D01*
X101862812Y-79606376D01*
X101713512Y-79636073D01*
X101688742Y-79641000D01*
X101511258Y-79641000D01*
X101486488Y-79636073D01*
X101337188Y-79606376D01*
X101173216Y-79538456D01*
X101025646Y-79439853D01*
X100900147Y-79314354D01*
X100801544Y-79166784D01*
X100733624Y-79002812D01*
X100699000Y-78828741D01*
X100699000Y-78651259D01*
X100733624Y-78477188D01*
X100801544Y-78313216D01*
X100900147Y-78165646D01*
X101025646Y-78040147D01*
X101173216Y-77941544D01*
X101337188Y-77873624D01*
X101486488Y-77843927D01*
X101511258Y-77839000D01*
X101688742Y-77839000D01*
X101713512Y-77843927D01*
G37*
G36*
X104253512Y-77843927D02*
G01*
X104402812Y-77873624D01*
X104566784Y-77941544D01*
X104714354Y-78040147D01*
X104839853Y-78165646D01*
X104938456Y-78313216D01*
X105006376Y-78477188D01*
X105041000Y-78651259D01*
X105041000Y-78828741D01*
X105006376Y-79002812D01*
X104938456Y-79166784D01*
X104839853Y-79314354D01*
X104714354Y-79439853D01*
X104566784Y-79538456D01*
X104402812Y-79606376D01*
X104253512Y-79636073D01*
X104228742Y-79641000D01*
X104051258Y-79641000D01*
X104026488Y-79636073D01*
X103877188Y-79606376D01*
X103713216Y-79538456D01*
X103565646Y-79439853D01*
X103440147Y-79314354D01*
X103341544Y-79166784D01*
X103273624Y-79002812D01*
X103239000Y-78828741D01*
X103239000Y-78651259D01*
X103273624Y-78477188D01*
X103341544Y-78313216D01*
X103440147Y-78165646D01*
X103565646Y-78040147D01*
X103713216Y-77941544D01*
X103877188Y-77873624D01*
X104026488Y-77843927D01*
X104051258Y-77839000D01*
X104228742Y-77839000D01*
X104253512Y-77843927D01*
G37*
G36*
X106793512Y-77843927D02*
G01*
X106942812Y-77873624D01*
X107106784Y-77941544D01*
X107254354Y-78040147D01*
X107379853Y-78165646D01*
X107478456Y-78313216D01*
X107546376Y-78477188D01*
X107581000Y-78651259D01*
X107581000Y-78828741D01*
X107546376Y-79002812D01*
X107478456Y-79166784D01*
X107379853Y-79314354D01*
X107254354Y-79439853D01*
X107106784Y-79538456D01*
X106942812Y-79606376D01*
X106793512Y-79636073D01*
X106768742Y-79641000D01*
X106591258Y-79641000D01*
X106566488Y-79636073D01*
X106417188Y-79606376D01*
X106253216Y-79538456D01*
X106105646Y-79439853D01*
X105980147Y-79314354D01*
X105881544Y-79166784D01*
X105813624Y-79002812D01*
X105779000Y-78828741D01*
X105779000Y-78651259D01*
X105813624Y-78477188D01*
X105881544Y-78313216D01*
X105980147Y-78165646D01*
X106105646Y-78040147D01*
X106253216Y-77941544D01*
X106417188Y-77873624D01*
X106566488Y-77843927D01*
X106591258Y-77839000D01*
X106768742Y-77839000D01*
X106793512Y-77843927D01*
G37*
G36*
X109333512Y-77843927D02*
G01*
X109482812Y-77873624D01*
X109646784Y-77941544D01*
X109794354Y-78040147D01*
X109919853Y-78165646D01*
X110018456Y-78313216D01*
X110086376Y-78477188D01*
X110121000Y-78651259D01*
X110121000Y-78828741D01*
X110086376Y-79002812D01*
X110018456Y-79166784D01*
X109919853Y-79314354D01*
X109794354Y-79439853D01*
X109646784Y-79538456D01*
X109482812Y-79606376D01*
X109333512Y-79636073D01*
X109308742Y-79641000D01*
X109131258Y-79641000D01*
X109106488Y-79636073D01*
X108957188Y-79606376D01*
X108793216Y-79538456D01*
X108645646Y-79439853D01*
X108520147Y-79314354D01*
X108421544Y-79166784D01*
X108353624Y-79002812D01*
X108319000Y-78828741D01*
X108319000Y-78651259D01*
X108353624Y-78477188D01*
X108421544Y-78313216D01*
X108520147Y-78165646D01*
X108645646Y-78040147D01*
X108793216Y-77941544D01*
X108957188Y-77873624D01*
X109106488Y-77843927D01*
X109131258Y-77839000D01*
X109308742Y-77839000D01*
X109333512Y-77843927D01*
G37*
G36*
X111873512Y-77843927D02*
G01*
X112022812Y-77873624D01*
X112186784Y-77941544D01*
X112334354Y-78040147D01*
X112459853Y-78165646D01*
X112558456Y-78313216D01*
X112626376Y-78477188D01*
X112661000Y-78651259D01*
X112661000Y-78828741D01*
X112626376Y-79002812D01*
X112558456Y-79166784D01*
X112459853Y-79314354D01*
X112334354Y-79439853D01*
X112186784Y-79538456D01*
X112022812Y-79606376D01*
X111873512Y-79636073D01*
X111848742Y-79641000D01*
X111671258Y-79641000D01*
X111646488Y-79636073D01*
X111497188Y-79606376D01*
X111333216Y-79538456D01*
X111185646Y-79439853D01*
X111060147Y-79314354D01*
X110961544Y-79166784D01*
X110893624Y-79002812D01*
X110859000Y-78828741D01*
X110859000Y-78651259D01*
X110893624Y-78477188D01*
X110961544Y-78313216D01*
X111060147Y-78165646D01*
X111185646Y-78040147D01*
X111333216Y-77941544D01*
X111497188Y-77873624D01*
X111646488Y-77843927D01*
X111671258Y-77839000D01*
X111848742Y-77839000D01*
X111873512Y-77843927D01*
G37*
G36*
X114413512Y-77843927D02*
G01*
X114562812Y-77873624D01*
X114726784Y-77941544D01*
X114874354Y-78040147D01*
X114999853Y-78165646D01*
X115098456Y-78313216D01*
X115166376Y-78477188D01*
X115201000Y-78651259D01*
X115201000Y-78828741D01*
X115166376Y-79002812D01*
X115098456Y-79166784D01*
X114999853Y-79314354D01*
X114874354Y-79439853D01*
X114726784Y-79538456D01*
X114562812Y-79606376D01*
X114413512Y-79636073D01*
X114388742Y-79641000D01*
X114211258Y-79641000D01*
X114186488Y-79636073D01*
X114037188Y-79606376D01*
X113873216Y-79538456D01*
X113725646Y-79439853D01*
X113600147Y-79314354D01*
X113501544Y-79166784D01*
X113433624Y-79002812D01*
X113399000Y-78828741D01*
X113399000Y-78651259D01*
X113433624Y-78477188D01*
X113501544Y-78313216D01*
X113600147Y-78165646D01*
X113725646Y-78040147D01*
X113873216Y-77941544D01*
X114037188Y-77873624D01*
X114186488Y-77843927D01*
X114211258Y-77839000D01*
X114388742Y-77839000D01*
X114413512Y-77843927D01*
G37*
G36*
X116953512Y-77843927D02*
G01*
X117102812Y-77873624D01*
X117266784Y-77941544D01*
X117414354Y-78040147D01*
X117539853Y-78165646D01*
X117638456Y-78313216D01*
X117706376Y-78477188D01*
X117741000Y-78651259D01*
X117741000Y-78828741D01*
X117706376Y-79002812D01*
X117638456Y-79166784D01*
X117539853Y-79314354D01*
X117414354Y-79439853D01*
X117266784Y-79538456D01*
X117102812Y-79606376D01*
X116953512Y-79636073D01*
X116928742Y-79641000D01*
X116751258Y-79641000D01*
X116726488Y-79636073D01*
X116577188Y-79606376D01*
X116413216Y-79538456D01*
X116265646Y-79439853D01*
X116140147Y-79314354D01*
X116041544Y-79166784D01*
X115973624Y-79002812D01*
X115939000Y-78828741D01*
X115939000Y-78651259D01*
X115973624Y-78477188D01*
X116041544Y-78313216D01*
X116140147Y-78165646D01*
X116265646Y-78040147D01*
X116413216Y-77941544D01*
X116577188Y-77873624D01*
X116726488Y-77843927D01*
X116751258Y-77839000D01*
X116928742Y-77839000D01*
X116953512Y-77843927D01*
G37*
G36*
X120281000Y-79641000D02*
G01*
X118479000Y-79641000D01*
X118479000Y-77839000D01*
X120281000Y-77839000D01*
X120281000Y-79641000D01*
G37*
M02*
