G04 #@! TF.GenerationSoftware,KiCad,Pcbnew,(5.1.5)-3*
G04 #@! TF.CreationDate,2020-06-05T16:26:23+02:00*
G04 #@! TF.ProjectId,FFC_24Pin_P0.5mm_Breakout,4646435f-3234-4506-996e-5f50302e356d,rev?*
G04 #@! TF.SameCoordinates,Original*
G04 #@! TF.FileFunction,Copper,L1,Top*
G04 #@! TF.FilePolarity,Positive*
%FSLAX46Y46*%
G04 Gerber Fmt 4.6, Leading zero omitted, Abs format (unit mm)*
G04 Created by KiCad (PCBNEW (5.1.5)-3) date 2020-06-05 16:26:23*
%MOMM*%
%LPD*%
G04 APERTURE LIST*
%ADD10O,1.700000X1.700000*%
%ADD11R,1.700000X1.700000*%
%ADD12R,3.100000X2.300000*%
%ADD13R,1.100000X0.300000*%
%ADD14C,0.250000*%
G04 APERTURE END LIST*
D10*
X91440000Y-78740000D03*
X93980000Y-78740000D03*
X96520000Y-78740000D03*
X99060000Y-78740000D03*
X101600000Y-78740000D03*
X104140000Y-78740000D03*
X106680000Y-78740000D03*
X109220000Y-78740000D03*
X111760000Y-78740000D03*
X114300000Y-78740000D03*
X116840000Y-78740000D03*
D11*
X119380000Y-78740000D03*
D10*
X119380000Y-93980000D03*
X116840000Y-93980000D03*
X114300000Y-93980000D03*
X111760000Y-93980000D03*
X109220000Y-93980000D03*
X106680000Y-93980000D03*
X104140000Y-93980000D03*
X101600000Y-93980000D03*
X99060000Y-93980000D03*
X96520000Y-93980000D03*
X93980000Y-93980000D03*
D11*
X91440000Y-93980000D03*
D12*
X126080000Y-78940000D03*
X126080000Y-93780000D03*
D13*
X124380000Y-80610000D03*
X124380000Y-81110000D03*
X124380000Y-81610000D03*
X124380000Y-82110000D03*
X124380000Y-82610000D03*
X124380000Y-83110000D03*
X124380000Y-83610000D03*
X124380000Y-84110000D03*
X124380000Y-84610000D03*
X124380000Y-85110000D03*
X124380000Y-85610000D03*
X124380000Y-86110000D03*
X124380000Y-86610000D03*
X124380000Y-87110000D03*
X124380000Y-87610000D03*
X124380000Y-88110000D03*
X124380000Y-88610000D03*
X124380000Y-89110000D03*
X124380000Y-89610000D03*
X124380000Y-90110000D03*
X124380000Y-90610000D03*
X124380000Y-91110000D03*
X124380000Y-91610000D03*
X124380000Y-92110000D03*
D14*
X119380000Y-79840000D02*
X119380000Y-78740000D01*
X120150000Y-80610000D02*
X119380000Y-79840000D01*
X124380000Y-80610000D02*
X120150000Y-80610000D01*
X119210000Y-81110000D02*
X116840000Y-78740000D01*
X124380000Y-81110000D02*
X119210000Y-81110000D01*
X117170000Y-81610000D02*
X114300000Y-78740000D01*
X124380000Y-81610000D02*
X117170000Y-81610000D01*
X115130000Y-82110000D02*
X111760000Y-78740000D01*
X124380000Y-82110000D02*
X115130000Y-82110000D01*
X113090000Y-82610000D02*
X109220000Y-78740000D01*
X124380000Y-82610000D02*
X113090000Y-82610000D01*
X111050000Y-83110000D02*
X106680000Y-78740000D01*
X124380000Y-83110000D02*
X111050000Y-83110000D01*
X109010000Y-83610000D02*
X104140000Y-78740000D01*
X124380000Y-83610000D02*
X109010000Y-83610000D01*
X106970000Y-84110000D02*
X101600000Y-78740000D01*
X124380000Y-84110000D02*
X106970000Y-84110000D01*
X104930000Y-84610000D02*
X99060000Y-78740000D01*
X124380000Y-84610000D02*
X104930000Y-84610000D01*
X102890000Y-85110000D02*
X96520000Y-78740000D01*
X124380000Y-85110000D02*
X102890000Y-85110000D01*
X100850000Y-85610000D02*
X93980000Y-78740000D01*
X124380000Y-85610000D02*
X100850000Y-85610000D01*
X98810000Y-86110000D02*
X91440000Y-78740000D01*
X124380000Y-86110000D02*
X98810000Y-86110000D01*
X124380000Y-86610000D02*
X98810000Y-86610000D01*
X98810000Y-86610000D02*
X91440000Y-93980000D01*
X100850000Y-87110000D02*
X93980000Y-93980000D01*
X124380000Y-87110000D02*
X100850000Y-87110000D01*
X102890000Y-87610000D02*
X96520000Y-93980000D01*
X124380000Y-87610000D02*
X102890000Y-87610000D01*
X104930000Y-88110000D02*
X99060000Y-93980000D01*
X124380000Y-88110000D02*
X104930000Y-88110000D01*
X106970000Y-88610000D02*
X101600000Y-93980000D01*
X124380000Y-88610000D02*
X106970000Y-88610000D01*
X109010000Y-89110000D02*
X104140000Y-93980000D01*
X124380000Y-89110000D02*
X109010000Y-89110000D01*
X111050000Y-89610000D02*
X106680000Y-93980000D01*
X124380000Y-89610000D02*
X111050000Y-89610000D01*
X113090000Y-90110000D02*
X109220000Y-93980000D01*
X124380000Y-90110000D02*
X113090000Y-90110000D01*
X115130000Y-90610000D02*
X111760000Y-93980000D01*
X124380000Y-90610000D02*
X115130000Y-90610000D01*
X117170000Y-91110000D02*
X114300000Y-93980000D01*
X124380000Y-91110000D02*
X117170000Y-91110000D01*
X119210000Y-91610000D02*
X116840000Y-93980000D01*
X124380000Y-91610000D02*
X119210000Y-91610000D01*
X121250000Y-92110000D02*
X119380000Y-93980000D01*
X124380000Y-92110000D02*
X121250000Y-92110000D01*
M02*
