G04 #@! TF.GenerationSoftware,KiCad,Pcbnew,(5.1.5)-3*
G04 #@! TF.CreationDate,2020-06-05T16:26:23+02:00*
G04 #@! TF.ProjectId,FFC_24Pin_P0.5mm_Breakout,4646435f-3234-4506-996e-5f50302e356d,rev?*
G04 #@! TF.SameCoordinates,Original*
G04 #@! TF.FileFunction,Legend,Top*
G04 #@! TF.FilePolarity,Positive*
%FSLAX46Y46*%
G04 Gerber Fmt 4.6, Leading zero omitted, Abs format (unit mm)*
G04 Created by KiCad (PCBNEW (5.1.5)-3) date 2020-06-05 16:26:23*
%MOMM*%
%LPD*%
G04 APERTURE LIST*
%ADD10C,0.300000*%
%ADD11C,0.120000*%
%ADD12C,0.150000*%
G04 APERTURE END LIST*
D10*
X92116428Y-83702857D02*
X91616428Y-83702857D01*
X91616428Y-84488571D02*
X91616428Y-82988571D01*
X92330714Y-82988571D01*
X93402142Y-83702857D02*
X92902142Y-83702857D01*
X92902142Y-84488571D02*
X92902142Y-82988571D01*
X93616428Y-82988571D01*
X95045000Y-84345714D02*
X94973571Y-84417142D01*
X94759285Y-84488571D01*
X94616428Y-84488571D01*
X94402142Y-84417142D01*
X94259285Y-84274285D01*
X94187857Y-84131428D01*
X94116428Y-83845714D01*
X94116428Y-83631428D01*
X94187857Y-83345714D01*
X94259285Y-83202857D01*
X94402142Y-83060000D01*
X94616428Y-82988571D01*
X94759285Y-82988571D01*
X94973571Y-83060000D01*
X95045000Y-83131428D01*
X96759285Y-83131428D02*
X96830714Y-83060000D01*
X96973571Y-82988571D01*
X97330714Y-82988571D01*
X97473571Y-83060000D01*
X97545000Y-83131428D01*
X97616428Y-83274285D01*
X97616428Y-83417142D01*
X97545000Y-83631428D01*
X96687857Y-84488571D01*
X97616428Y-84488571D01*
X98902142Y-83488571D02*
X98902142Y-84488571D01*
X98545000Y-82917142D02*
X98187857Y-83988571D01*
X99116428Y-83988571D01*
X100830714Y-84488571D02*
X100830714Y-82988571D01*
X101402142Y-82988571D01*
X101545000Y-83060000D01*
X101616428Y-83131428D01*
X101687857Y-83274285D01*
X101687857Y-83488571D01*
X101616428Y-83631428D01*
X101545000Y-83702857D01*
X101402142Y-83774285D01*
X100830714Y-83774285D01*
X102330714Y-84488571D02*
X102330714Y-83488571D01*
X102330714Y-82988571D02*
X102259285Y-83060000D01*
X102330714Y-83131428D01*
X102402142Y-83060000D01*
X102330714Y-82988571D01*
X102330714Y-83131428D01*
X103045000Y-83488571D02*
X103045000Y-84488571D01*
X103045000Y-83631428D02*
X103116428Y-83560000D01*
X103259285Y-83488571D01*
X103473571Y-83488571D01*
X103616428Y-83560000D01*
X103687857Y-83702857D01*
X103687857Y-84488571D01*
X104330714Y-84417142D02*
X104473571Y-84488571D01*
X104759285Y-84488571D01*
X104902142Y-84417142D01*
X104973571Y-84274285D01*
X104973571Y-84202857D01*
X104902142Y-84060000D01*
X104759285Y-83988571D01*
X104545000Y-83988571D01*
X104402142Y-83917142D01*
X104330714Y-83774285D01*
X104330714Y-83702857D01*
X104402142Y-83560000D01*
X104545000Y-83488571D01*
X104759285Y-83488571D01*
X104902142Y-83560000D01*
X107045000Y-82988571D02*
X107187857Y-82988571D01*
X107330714Y-83060000D01*
X107402142Y-83131428D01*
X107473571Y-83274285D01*
X107545000Y-83560000D01*
X107545000Y-83917142D01*
X107473571Y-84202857D01*
X107402142Y-84345714D01*
X107330714Y-84417142D01*
X107187857Y-84488571D01*
X107045000Y-84488571D01*
X106902142Y-84417142D01*
X106830714Y-84345714D01*
X106759285Y-84202857D01*
X106687857Y-83917142D01*
X106687857Y-83560000D01*
X106759285Y-83274285D01*
X106830714Y-83131428D01*
X106902142Y-83060000D01*
X107045000Y-82988571D01*
X108187857Y-84345714D02*
X108259285Y-84417142D01*
X108187857Y-84488571D01*
X108116428Y-84417142D01*
X108187857Y-84345714D01*
X108187857Y-84488571D01*
X109616428Y-82988571D02*
X108902142Y-82988571D01*
X108830714Y-83702857D01*
X108902142Y-83631428D01*
X109045000Y-83560000D01*
X109402142Y-83560000D01*
X109545000Y-83631428D01*
X109616428Y-83702857D01*
X109687857Y-83845714D01*
X109687857Y-84202857D01*
X109616428Y-84345714D01*
X109545000Y-84417142D01*
X109402142Y-84488571D01*
X109045000Y-84488571D01*
X108902142Y-84417142D01*
X108830714Y-84345714D01*
X110330714Y-84488571D02*
X110330714Y-83488571D01*
X110330714Y-83631428D02*
X110402142Y-83560000D01*
X110545000Y-83488571D01*
X110759285Y-83488571D01*
X110902142Y-83560000D01*
X110973571Y-83702857D01*
X110973571Y-84488571D01*
X110973571Y-83702857D02*
X111045000Y-83560000D01*
X111187857Y-83488571D01*
X111402142Y-83488571D01*
X111545000Y-83560000D01*
X111616428Y-83702857D01*
X111616428Y-84488571D01*
X112330714Y-84488571D02*
X112330714Y-83488571D01*
X112330714Y-83631428D02*
X112402142Y-83560000D01*
X112545000Y-83488571D01*
X112759285Y-83488571D01*
X112902142Y-83560000D01*
X112973571Y-83702857D01*
X112973571Y-84488571D01*
X112973571Y-83702857D02*
X113045000Y-83560000D01*
X113187857Y-83488571D01*
X113402142Y-83488571D01*
X113545000Y-83560000D01*
X113616428Y-83702857D01*
X113616428Y-84488571D01*
X115473571Y-84488571D02*
X115473571Y-82988571D01*
X116045000Y-82988571D01*
X116187857Y-83060000D01*
X116259285Y-83131428D01*
X116330714Y-83274285D01*
X116330714Y-83488571D01*
X116259285Y-83631428D01*
X116187857Y-83702857D01*
X116045000Y-83774285D01*
X115473571Y-83774285D01*
X116973571Y-84488571D02*
X116973571Y-83488571D01*
X116973571Y-82988571D02*
X116902142Y-83060000D01*
X116973571Y-83131428D01*
X117045000Y-83060000D01*
X116973571Y-82988571D01*
X116973571Y-83131428D01*
X117473571Y-83488571D02*
X118045000Y-83488571D01*
X117687857Y-82988571D02*
X117687857Y-84274285D01*
X117759285Y-84417142D01*
X117902142Y-84488571D01*
X118045000Y-84488571D01*
X119187857Y-84417142D02*
X119045000Y-84488571D01*
X118759285Y-84488571D01*
X118616428Y-84417142D01*
X118545000Y-84345714D01*
X118473571Y-84202857D01*
X118473571Y-83774285D01*
X118545000Y-83631428D01*
X118616428Y-83560000D01*
X118759285Y-83488571D01*
X119045000Y-83488571D01*
X119187857Y-83560000D01*
X119830714Y-84488571D02*
X119830714Y-82988571D01*
X120473571Y-84488571D02*
X120473571Y-83702857D01*
X120402142Y-83560000D01*
X120259285Y-83488571D01*
X120045000Y-83488571D01*
X119902142Y-83560000D01*
X119830714Y-83631428D01*
X96616428Y-86252857D02*
X96830714Y-86324285D01*
X96902142Y-86395714D01*
X96973571Y-86538571D01*
X96973571Y-86752857D01*
X96902142Y-86895714D01*
X96830714Y-86967142D01*
X96687857Y-87038571D01*
X96116428Y-87038571D01*
X96116428Y-85538571D01*
X96616428Y-85538571D01*
X96759285Y-85610000D01*
X96830714Y-85681428D01*
X96902142Y-85824285D01*
X96902142Y-85967142D01*
X96830714Y-86110000D01*
X96759285Y-86181428D01*
X96616428Y-86252857D01*
X96116428Y-86252857D01*
X97616428Y-87038571D02*
X97616428Y-86038571D01*
X97616428Y-86324285D02*
X97687857Y-86181428D01*
X97759285Y-86110000D01*
X97902142Y-86038571D01*
X98045000Y-86038571D01*
X99116428Y-86967142D02*
X98973571Y-87038571D01*
X98687857Y-87038571D01*
X98545000Y-86967142D01*
X98473571Y-86824285D01*
X98473571Y-86252857D01*
X98545000Y-86110000D01*
X98687857Y-86038571D01*
X98973571Y-86038571D01*
X99116428Y-86110000D01*
X99187857Y-86252857D01*
X99187857Y-86395714D01*
X98473571Y-86538571D01*
X100473571Y-87038571D02*
X100473571Y-86252857D01*
X100402142Y-86110000D01*
X100259285Y-86038571D01*
X99973571Y-86038571D01*
X99830714Y-86110000D01*
X100473571Y-86967142D02*
X100330714Y-87038571D01*
X99973571Y-87038571D01*
X99830714Y-86967142D01*
X99759285Y-86824285D01*
X99759285Y-86681428D01*
X99830714Y-86538571D01*
X99973571Y-86467142D01*
X100330714Y-86467142D01*
X100473571Y-86395714D01*
X101830714Y-87038571D02*
X101830714Y-85538571D01*
X101830714Y-86967142D02*
X101687857Y-87038571D01*
X101402142Y-87038571D01*
X101259285Y-86967142D01*
X101187857Y-86895714D01*
X101116428Y-86752857D01*
X101116428Y-86324285D01*
X101187857Y-86181428D01*
X101259285Y-86110000D01*
X101402142Y-86038571D01*
X101687857Y-86038571D01*
X101830714Y-86110000D01*
X102545000Y-87038571D02*
X102545000Y-85538571D01*
X102545000Y-86110000D02*
X102687857Y-86038571D01*
X102973571Y-86038571D01*
X103116428Y-86110000D01*
X103187857Y-86181428D01*
X103259285Y-86324285D01*
X103259285Y-86752857D01*
X103187857Y-86895714D01*
X103116428Y-86967142D01*
X102973571Y-87038571D01*
X102687857Y-87038571D01*
X102545000Y-86967142D01*
X104116428Y-87038571D02*
X103973571Y-86967142D01*
X103902142Y-86895714D01*
X103830714Y-86752857D01*
X103830714Y-86324285D01*
X103902142Y-86181428D01*
X103973571Y-86110000D01*
X104116428Y-86038571D01*
X104330714Y-86038571D01*
X104473571Y-86110000D01*
X104545000Y-86181428D01*
X104616428Y-86324285D01*
X104616428Y-86752857D01*
X104545000Y-86895714D01*
X104473571Y-86967142D01*
X104330714Y-87038571D01*
X104116428Y-87038571D01*
X105902142Y-87038571D02*
X105902142Y-86252857D01*
X105830714Y-86110000D01*
X105687857Y-86038571D01*
X105402142Y-86038571D01*
X105259285Y-86110000D01*
X105902142Y-86967142D02*
X105759285Y-87038571D01*
X105402142Y-87038571D01*
X105259285Y-86967142D01*
X105187857Y-86824285D01*
X105187857Y-86681428D01*
X105259285Y-86538571D01*
X105402142Y-86467142D01*
X105759285Y-86467142D01*
X105902142Y-86395714D01*
X106616428Y-87038571D02*
X106616428Y-86038571D01*
X106616428Y-86324285D02*
X106687857Y-86181428D01*
X106759285Y-86110000D01*
X106902142Y-86038571D01*
X107045000Y-86038571D01*
X108187857Y-87038571D02*
X108187857Y-85538571D01*
X108187857Y-86967142D02*
X108045000Y-87038571D01*
X107759285Y-87038571D01*
X107616428Y-86967142D01*
X107545000Y-86895714D01*
X107473571Y-86752857D01*
X107473571Y-86324285D01*
X107545000Y-86181428D01*
X107616428Y-86110000D01*
X107759285Y-86038571D01*
X108045000Y-86038571D01*
X108187857Y-86110000D01*
X110902142Y-87038571D02*
X110402142Y-86324285D01*
X110045000Y-87038571D02*
X110045000Y-85538571D01*
X110616428Y-85538571D01*
X110759285Y-85610000D01*
X110830714Y-85681428D01*
X110902142Y-85824285D01*
X110902142Y-86038571D01*
X110830714Y-86181428D01*
X110759285Y-86252857D01*
X110616428Y-86324285D01*
X110045000Y-86324285D01*
X112116428Y-86967142D02*
X111973571Y-87038571D01*
X111687857Y-87038571D01*
X111545000Y-86967142D01*
X111473571Y-86824285D01*
X111473571Y-86252857D01*
X111545000Y-86110000D01*
X111687857Y-86038571D01*
X111973571Y-86038571D01*
X112116428Y-86110000D01*
X112187857Y-86252857D01*
X112187857Y-86395714D01*
X111473571Y-86538571D01*
X113473571Y-87038571D02*
X113473571Y-86252857D01*
X113402142Y-86110000D01*
X113259285Y-86038571D01*
X112973571Y-86038571D01*
X112830714Y-86110000D01*
X113473571Y-86967142D02*
X113330714Y-87038571D01*
X112973571Y-87038571D01*
X112830714Y-86967142D01*
X112759285Y-86824285D01*
X112759285Y-86681428D01*
X112830714Y-86538571D01*
X112973571Y-86467142D01*
X113330714Y-86467142D01*
X113473571Y-86395714D01*
X114830714Y-87038571D02*
X114830714Y-85538571D01*
X114830714Y-86967142D02*
X114687857Y-87038571D01*
X114402142Y-87038571D01*
X114259285Y-86967142D01*
X114187857Y-86895714D01*
X114116428Y-86752857D01*
X114116428Y-86324285D01*
X114187857Y-86181428D01*
X114259285Y-86110000D01*
X114402142Y-86038571D01*
X114687857Y-86038571D01*
X114830714Y-86110000D01*
X115402142Y-86038571D02*
X115759285Y-87038571D01*
X116116428Y-86038571D02*
X115759285Y-87038571D01*
X115616428Y-87395714D01*
X115545000Y-87467142D01*
X115402142Y-87538571D01*
X102366428Y-89517142D02*
X102580714Y-89588571D01*
X102937857Y-89588571D01*
X103080714Y-89517142D01*
X103152142Y-89445714D01*
X103223571Y-89302857D01*
X103223571Y-89160000D01*
X103152142Y-89017142D01*
X103080714Y-88945714D01*
X102937857Y-88874285D01*
X102652142Y-88802857D01*
X102509285Y-88731428D01*
X102437857Y-88660000D01*
X102366428Y-88517142D01*
X102366428Y-88374285D01*
X102437857Y-88231428D01*
X102509285Y-88160000D01*
X102652142Y-88088571D01*
X103009285Y-88088571D01*
X103223571Y-88160000D01*
X104723571Y-89445714D02*
X104652142Y-89517142D01*
X104437857Y-89588571D01*
X104295000Y-89588571D01*
X104080714Y-89517142D01*
X103937857Y-89374285D01*
X103866428Y-89231428D01*
X103795000Y-88945714D01*
X103795000Y-88731428D01*
X103866428Y-88445714D01*
X103937857Y-88302857D01*
X104080714Y-88160000D01*
X104295000Y-88088571D01*
X104437857Y-88088571D01*
X104652142Y-88160000D01*
X104723571Y-88231428D01*
X105366428Y-89588571D02*
X105366428Y-88088571D01*
X105366428Y-88802857D02*
X106223571Y-88802857D01*
X106223571Y-89588571D02*
X106223571Y-88088571D01*
X106937857Y-89588571D02*
X106937857Y-88088571D01*
X108366428Y-89588571D02*
X107652142Y-89588571D01*
X107652142Y-88088571D01*
X108866428Y-89588571D02*
X108866428Y-88088571D01*
X109723571Y-89588571D02*
X109080714Y-88731428D01*
X109723571Y-88088571D02*
X108866428Y-88945714D01*
D11*
X120710000Y-77410000D02*
X120710000Y-78740000D01*
X119380000Y-77410000D02*
X120710000Y-77410000D01*
X118110000Y-77410000D02*
X118110000Y-80070000D01*
X118110000Y-80070000D02*
X90110000Y-80070000D01*
X118110000Y-77410000D02*
X90110000Y-77410000D01*
X90110000Y-77410000D02*
X90110000Y-80070000D01*
X90110000Y-95310000D02*
X90110000Y-93980000D01*
X91440000Y-95310000D02*
X90110000Y-95310000D01*
X92710000Y-95310000D02*
X92710000Y-92650000D01*
X92710000Y-92650000D02*
X120710000Y-92650000D01*
X92710000Y-95310000D02*
X120710000Y-95310000D01*
X120710000Y-95310000D02*
X120710000Y-92650000D01*
X125180000Y-91910000D02*
X125180000Y-92310000D01*
X125580000Y-92110000D02*
X125180000Y-91910000D01*
X125180000Y-92310000D02*
X125580000Y-92110000D01*
X127770000Y-77535000D02*
X128370000Y-77535000D01*
X127770000Y-77645000D02*
X127770000Y-77535000D01*
X127770000Y-95185000D02*
X128370000Y-95185000D01*
X127770000Y-95075000D02*
X127770000Y-95185000D01*
D12*
X121162380Y-79073333D02*
X121876666Y-79073333D01*
X122019523Y-79120952D01*
X122114761Y-79216190D01*
X122162380Y-79359047D01*
X122162380Y-79454285D01*
X121162380Y-78692380D02*
X121162380Y-78073333D01*
X121543333Y-78406666D01*
X121543333Y-78263809D01*
X121590952Y-78168571D01*
X121638571Y-78120952D01*
X121733809Y-78073333D01*
X121971904Y-78073333D01*
X122067142Y-78120952D01*
X122114761Y-78168571D01*
X122162380Y-78263809D01*
X122162380Y-78549523D01*
X122114761Y-78644761D01*
X122067142Y-78692380D01*
X121372380Y-94313333D02*
X122086666Y-94313333D01*
X122229523Y-94360952D01*
X122324761Y-94456190D01*
X122372380Y-94599047D01*
X122372380Y-94694285D01*
X121467619Y-93884761D02*
X121420000Y-93837142D01*
X121372380Y-93741904D01*
X121372380Y-93503809D01*
X121420000Y-93408571D01*
X121467619Y-93360952D01*
X121562857Y-93313333D01*
X121658095Y-93313333D01*
X121800952Y-93360952D01*
X122372380Y-93932380D01*
X122372380Y-93313333D01*
X122082380Y-86693333D02*
X122796666Y-86693333D01*
X122939523Y-86740952D01*
X123034761Y-86836190D01*
X123082380Y-86979047D01*
X123082380Y-87074285D01*
X123082380Y-85693333D02*
X123082380Y-86264761D01*
X123082380Y-85979047D02*
X122082380Y-85979047D01*
X122225238Y-86074285D01*
X122320476Y-86169523D01*
X122368095Y-86264761D01*
M02*
